# xmcd CD database file
#
# Track frame offsets:
#	150
#	17437
#	75586
#	94203
#	123300
#	147545
#	172822
#	195401
#	219143
#	238608
#	266078
#
# Disc length: 3758 seconds
#
# Revision: 0
# Processed by: cddbd v1.5.2PL0 Copyright (c) Steve Scherf et al.
# Submitted via: CDex 1.70beta2
#
DISCID=890eac0b
DTITLE=Cybertribe - Scacred Memories
DYEAR=2002
DGENRE=New Age
TTITLE0=First Contact
TTITLE1=Reachin g the Ocean
TTITLE2=Deep Down in the Jungle
TTITLE3=Cry of the Earth
TTITLE4=Across the Magic Mountains
TTITLE5=Voices (from a distant planet)
TTITLE6=Signs of Friendship
TTITLE7=(That's Why We Have to Come) Back to This Land
TTITLE8=Immortality of Earth
TTITLE9=Cruising Bridges
TTITLE10=Celebration
EXTD=YEAR: 2002
EXTT0=
EXTT1=
EXTT2=
EXTT3=
EXTT4=
EXTT5=
EXTT6=
EXTT7=
EXTT8=
EXTT9=
EXTT10=
PLAYORDER=
